<svg xmlns="http://www.w3.org/2000/svg" version="1.1" xmlns:xlink="http://www.w3.org/1999/xlink" xmlns:svgjs="http://svgjs.com/svgjs" width="1440" height="560" preserveAspectRatio="none" viewBox="0 0 1440 560"><g mask="url(&quot;#SvgjsMask1002&quot;)" fill="none"><rect width="1440" height="560" x="0" y="0" fill="url(#SvgjsLinearGradient1003)"></rect><path d="M1440 0L964.37 0L1440 199.24z" fill="rgba(255, 255, 255, .1)"></path><path d="M964.37 0L1440 199.24L1440 326.58000000000004L820.34 0z" fill="rgba(255, 255, 255, .075)"></path><path d="M820.34 0L1440 326.58000000000004L1440 443.13000000000005L650.4000000000001 0z" fill="rgba(255, 255, 255, .05)"></path><path d="M650.4000000000001 0L1440 443.13000000000005L1440 500.2300000000001L463.2000000000001 0z" fill="rgba(255, 255, 255, .025)"></path><path d="M0 560L466.78 560L0 513.19z" fill="rgba(0, 0, 0, .1)"></path><path d="M0 513.19L466.78 560L949.23 560L0 492.05000000000007z" fill="rgba(0, 0, 0, .075)"></path><path d="M0 492.05L949.23 560L1238.35 560L0 217.73000000000002z" fill="rgba(0, 0, 0, .05)"></path><path d="M0 217.73000000000002L1238.35 560L1322.35 560L0 200.25000000000003z" fill="rgba(0, 0, 0, .025)"></path></g><defs><mask id="SvgjsMask1002"><rect width="1440" height="560" fill="#ffffff"></rect></mask><linearGradient x1="15.28%" y1="-39.29%" x2="84.72%" y2="139.29%" gradientUnits="userSpaceOnUse" id="SvgjsLinearGradient1003"><stop stop-color="#0e2a47" offset="0"></stop><stop stop-color="#00459e" offset="1"></stop></linearGradient></defs></svg>